HIERARCHY
ROOT Hips
{
	OFFSET 0.000000 0.000000 0.000000
	CHANNELS 6 Xposition Yposition Zposition Zrotation Yrotation Xrotation
	JOINT LHipJoint
	{
		OFFSET 0.000000 0.000000 0.000000
		CHANNELS 6 Xposition Yposition Zposition Zrotation Yrotation Xrotation
		JOINT LeftHip
		{
			OFFSET 1.623290 -1.808000 0.673180
			CHANNELS 3 Zrotation Yrotation Xrotation
			JOINT LeftKnee
			{
				OFFSET 2.571390 -7.064840 0.000001
				CHANNELS 6 Xposition Yposition Zposition Zrotation Yrotation Xrotation
				JOINT LeftAnkle
				{
					OFFSET 2.520170 -6.924130 0.000001
					CHANNELS 6 Xposition Yposition Zposition Zrotation Yrotation Xrotation
					JOINT LeftToe
					{
						OFFSET 0.232950 -0.640011 2.102140
						CHANNELS 6 Xposition Yposition Zposition Zrotation Yrotation Xrotation
						End Site
						{
							OFFSET 0.000000 0.000000 1.101390
						}
					}
				}
			}
		}
	}
	JOINT RHipJoint
	{
		OFFSET 0.000000 0.000000 0.000000
		CHANNELS 6 Xposition Yposition Zposition Zrotation Yrotation Xrotation
		JOINT RightHip
		{
			OFFSET -1.480610 -1.808000 0.673180
			CHANNELS 3 Zrotation Yrotation Xrotation
			JOINT RightKnee
			{
				OFFSET -2.632580 -7.232960 0.000001
				CHANNELS 6 Xposition Yposition Zposition Zrotation Yrotation Xrotation
				JOINT RightAnkle
				{
					OFFSET -2.547790 -7.000000 0.000001
					CHANNELS 6 Xposition Yposition Zposition Zrotation Yrotation Xrotation
					JOINT RightToe
					{
						OFFSET -0.230670 -0.633760 2.121610
						CHANNELS 6 Xposition Yposition Zposition Zrotation Yrotation Xrotation
						End Site
						{
							OFFSET 0.000000 0.000000 1.110000
						}
					}
				}
			}
		}
	}
	JOINT lowerback
	{
		OFFSET 0.000000 0.000000 0.000000
		CHANNELS 6 Xposition Yposition Zposition Zrotation Yrotation Xrotation
		JOINT Chest
		{
			OFFSET -0.021080 2.075730 -0.169810
			CHANNELS 3 Zrotation Yrotation Xrotation
			JOINT Chest2
			{
				OFFSET 0.050700 2.084390 -0.031410
				CHANNELS 6 Xposition Yposition Zposition Zrotation Yrotation Xrotation
				JOINT lowerneck
				{
					OFFSET 0.000000 0.000000 0.000000
					CHANNELS 6 Xposition Yposition Zposition Zrotation Yrotation Xrotation
					JOINT Neck
					{
						OFFSET -0.107310 1.604080 0.313700
						CHANNELS 3 Zrotation Yrotation Xrotation
						JOINT Head
						{
							OFFSET 0.084110 1.656790 -0.308220
							CHANNELS 6 Xposition Yposition Zposition Zrotation Yrotation Xrotation
							End Site
							{
								OFFSET 0.039110 1.691490 -0.141460
							}
						}
					}
				}
				JOINT LeftCollar
				{
					OFFSET 0.000000 0.000000 0.000000
					CHANNELS 6 Xposition Yposition Zposition Zrotation Yrotation Xrotation
					JOINT LeftShoulder
					{
						OFFSET 3.523150 0.732190 -0.546940
						CHANNELS 3 Zrotation Xrotation Yrotation
						JOINT LeftElbow
						{
							OFFSET 0.000000 -5.324620 0.000001
							CHANNELS 6 Xposition Yposition Zposition Zrotation Xrotation Yrotation
							JOINT LeftWrist
							{
								OFFSET 0.000000 -3.484020 0.000000
								CHANNELS 6 Xposition Yposition Zposition Zrotation Xrotation Yrotation
								JOINT lhand
								{
									OFFSET 0.000000 0.000000 0.000000
									CHANNELS 6 Xposition Yposition Zposition Zrotation Xrotation Yrotation
									JOINT LFingers
									{
										OFFSET 0.000000 -0.572480 0.000000
										CHANNELS 3 Zrotation Xrotation Yrotation
										End Site
										{
											OFFSET 0.000000 -0.461540 0.000000
										}
									}
								}
								JOINT LThumb
								{
									OFFSET 0.000000 0.000000 0.000000
									CHANNELS 6 Xposition Yposition Zposition Zrotation Xrotation Yrotation
									End Site
									{
										OFFSET 0.000000 -0.468590 0.468590
									}
								}
							}
						}
					}
				}
				JOINT RightCollar
				{
					OFFSET 0.000000 0.000000 0.000000
					CHANNELS 6 Xposition Yposition Zposition Zrotation Yrotation Xrotation
					JOINT RightShoulder
					{
						OFFSET -3.417660 0.935920 -0.100190
						CHANNELS 3 Zrotation Xrotation Yrotation
						JOINT RightElbow
						{
							OFFSET 0.000000 -5.335890 0.000001
							CHANNELS 6 Xposition Yposition Zposition Zrotation Xrotation Yrotation
							JOINT RightWrist
							{
								OFFSET 0.000000 -3.641340 0.000000
								CHANNELS 6 Xposition Yposition Zposition Zrotation Xrotation Yrotation
								JOINT rhand
								{
									OFFSET 0.000000 0.000000 0.000000
									CHANNELS 6 Xposition Yposition Zposition Zrotation Xrotation Yrotation
									JOINT RFingers
									{
										OFFSET 0.000000 -0.734810 0.000000
										CHANNELS 3 Zrotation Xrotation Yrotation
										End Site
										{
											OFFSET 0.000000 -0.592420 0.000000
										}
									}
								}
								JOINT RThumb
								{
									OFFSET 0.000000 0.000000 0.000000
									CHANNELS 6 Xposition Yposition Zposition Zrotation Xrotation Yrotation
									End Site
									{
										OFFSET 0.000000 -0.601470 0.601470
									}
								}
							}
						}
					}
				}
			}
		}
	}
}
MOTION
Frames: 7
Frame Time: 0.041667
-1.993500 17.681700 0.101198 0.398100 -1.002300 4.290399 -0.000000 -0.000000 0.000000 -0.000003 -0.000002 -0.000002 -19.241505 -3.606605 -5.952400 2.571390 -7.064840 0.000001 1.942798 8.745903 25.003700 2.520170 -6.924131 -0.000001 0.954603 4.637094 -20.690101 0.232951 -0.640012 2.102140 1.278002 -7.164402 -20.203307 -0.000000 -0.000000 0.000000 -0.000002 -0.000002 0.000000 17.405491 7.656199 -8.659997 -2.632580 -7.232961 0.000001 -3.037894 -10.756097 31.461689 -2.547791 -7.000001 0.000000 -1.779889 2.116396 -24.653501 -0.230671 -0.633762 2.121610 -0.142200 -2.430398 6.696804 -0.000000 -0.000000 0.000000 -2.785899 -0.431600 -0.280401 1.903100 -0.569600 -1.574600 0.050700 2.084388 -0.031410 3.525399 -0.236100 -1.412900 -0.000000 0.000000 -0.000000 -10.790402 -3.330203 -22.159202 5.441300 -2.444499 25.015506 0.084110 1.656785 -0.308219 3.457900 -1.416500 12.147906 -0.000000 0.000000 -0.000000 0.000000 -0.000000 -0.000001 -1.868900 0.357802 -6.379202 -0.000000 -5.324622 0.000001 12.911804 -21.157807 2.421408 0.000000 -3.484020 0.000000 11.812108 14.715214 -27.100003 0.000000 0.000001 0.000000 0.000000 0.000000 -0.000002 -7.125003 0.000002 -0.000001 0.000000 0.000001 0.000000 -19.991754 56.440500 5.768873 -0.000000 0.000000 0.000000 -0.000001 0.000000 0.000000 -2.321198 1.814299 8.315305 -0.000001 -5.335888 0.000000 -15.702089 -25.115106 -3.518594 -0.000000 -3.641340 0.000000 -19.740090 19.140900 -0.221111 0.000001 0.000001 -0.000000 0.000002 -0.000000 0.000000 7.125000 0.000000 0.000001 -0.000000 0.000001 0.000000 5.362598 29.724194 2.005999 
-1.991800 17.680300 0.100198 0.272800 -1.001500 4.234299 0.000000 -0.000001 0.000000 -0.000003 0.000003 -0.000004 -19.095003 -3.510809 -6.016198 2.571389 -7.064839 0.000001 1.967496 8.798004 25.165400 2.520169 -6.924129 -0.000000 0.974202 4.437598 -20.751600 0.232950 -0.640012 2.102140 1.278302 -7.165103 -20.205503 0.000000 -0.000001 0.000000 -0.000002 -0.000006 -0.000005 17.546597 7.669698 -8.612297 -2.632580 -7.232960 0.000001 -3.037995 -10.756298 31.462197 -2.547790 -7.000000 -0.000001 -1.776493 2.048595 -24.646104 -0.230670 -0.633761 2.121610 -0.138003 -2.394597 6.597401 0.000000 -0.000001 0.000000 -2.643699 -0.384800 -0.173002 1.942601 -0.508000 -1.500600 0.050700 2.084389 -0.031410 3.485901 -0.208000 -1.402800 0.000000 0.000003 -0.000000 -10.840401 -3.375402 -22.185400 5.525901 -2.510801 24.936908 0.084110 1.656790 -0.308220 3.485700 -1.437600 12.130506 0.000000 0.000003 -0.000000 0.000000 -0.000000 -0.000001 -1.809700 0.319602 -6.681701 0.000000 -5.324621 0.000001 13.032904 -21.335409 2.465207 -0.000000 -3.484020 0.000000 12.192606 14.957616 -28.200203 0.000001 0.000001 0.000000 0.000000 -0.000000 -0.000003 -7.125004 -0.000000 -0.000002 0.000001 0.000001 0.000000 -20.326867 57.550006 6.423272 0.000000 0.000003 -0.000000 -0.000001 -0.000000 0.000000 -2.320098 1.682998 8.187103 -0.000000 -5.335892 0.000000 -15.674089 -25.076804 -3.506692 0.000000 -3.641339 0.000001 -19.611184 19.101900 -0.593212 -0.000001 0.000001 -0.000000 0.000000 -0.000000 -0.000000 7.124995 0.000000 0.000001 -0.000001 0.000001 0.000000 5.443101 29.330396 2.087598 
-1.986500 17.674601 0.100498 0.310700 -1.005300 4.233500 -0.000000 -0.000003 -0.000000 -0.000003 -0.000004 0.000001 -19.140603 -3.449306 -6.080300 2.571389 -7.064838 0.000001 1.979296 8.822806 25.242499 2.520169 -6.924131 0.000000 0.991704 4.274495 -20.816907 0.232950 -0.640012 2.102140 1.292003 -7.202001 -20.315204 -0.000000 -0.000003 -0.000000 -0.000003 -0.000001 0.000001 17.476798 7.620798 -8.675795 -2.632581 -7.232962 0.000001 -3.055797 -10.784899 31.557694 -2.547790 -6.999998 -0.000001 -1.784395 2.117296 -24.685301 -0.230670 -0.633762 2.121610 -0.133400 -2.353996 6.485003 -0.000000 -0.000003 -0.000000 -2.661399 -0.376100 -0.128402 1.952400 -0.497300 -1.505101 0.050700 2.084392 -0.031410 3.506300 -0.201800 -1.433100 -0.000000 0.000001 -0.000000 -10.781301 -3.306203 -22.083103 5.494801 -2.434701 24.843008 0.084110 1.656792 -0.308220 3.474300 -1.400901 12.064505 -0.000000 0.000001 -0.000000 -0.000001 -0.000000 -0.000001 -1.763499 0.334203 -6.607700 -0.000000 -5.324621 0.000001 13.032204 -21.334408 2.465007 -0.000001 -3.484023 0.000001 11.611509 14.743216 -27.791806 0.000001 -0.000001 0.000000 -0.000002 0.000000 0.000000 -7.125004 0.000000 -0.000001 0.000000 -0.000000 -0.000000 -20.643770 57.046413 6.275177 -0.000000 0.000001 -0.000000 -0.000001 -0.000000 -0.000000 -2.320699 1.728498 8.248802 -0.000001 -5.335891 0.000001 -15.708493 -25.123799 -3.521294 0.000000 -3.641342 0.000001 -19.605493 18.912106 -0.709610 0.000000 -0.000001 -0.000000 0.000000 0.000000 0.000000 7.124996 0.000001 0.000001 -0.000000 -0.000001 -0.000000 5.441399 29.207303 2.102897 
-1.985200 17.673800 0.107098 0.427900 -0.948500 4.229899 0.000000 -0.000001 0.000000 0.000003 -0.000003 0.000000 -19.258403 -3.391004 -6.044204 2.571389 -7.064837 0.000001 1.962394 8.787301 25.132296 2.520170 -6.924129 -0.000000 0.983201 4.243495 -20.720902 0.232951 -0.640011 2.102139 1.283701 -7.179804 -20.249204 0.000000 -0.000001 0.000000 -0.000004 -0.000002 -0.000001 17.349198 7.598298 -8.756296 -2.632580 -7.232960 0.000001 -3.092694 -10.843601 31.754195 -2.547789 -6.999998 -0.000000 -1.796094 2.109995 -24.770905 -0.230671 -0.633761 2.121610 -0.121902 -2.250397 6.198303 0.000000 -0.000001 0.000000 -2.808800 -0.422401 -0.145201 1.974400 -0.559600 -1.466600 0.050700 2.084388 -0.031410 3.612601 -0.232499 -1.377800 -0.000000 -0.000000 0.000000 -10.662398 -3.271800 -22.159895 5.285302 -2.358301 24.893007 0.084110 1.656792 -0.308220 3.387801 -1.383399 12.087808 -0.000000 0.000000 -0.000000 0.000001 -0.000001 -0.000002 -1.795200 0.273303 -6.423900 0.000000 -5.324620 0.000001 12.997004 -21.282806 2.452207 0.000000 -3.484022 0.000000 11.870107 14.706714 -27.167205 -0.000000 -0.000002 0.000000 0.000000 0.000001 0.000002 -7.125002 0.000002 0.000001 0.000000 -0.000002 0.000001 -19.975976 56.515307 5.800774 -0.000000 -0.000000 -0.000000 -0.000003 -0.000000 0.000000 -2.420701 1.650598 8.484106 -0.000001 -5.335891 0.000000 -15.688690 -25.096704 -3.512893 -0.000001 -3.641340 0.000001 -19.570994 18.916603 -0.843610 0.000001 -0.000001 0.000000 0.000003 0.000000 0.000000 7.124996 0.000001 0.000001 0.000000 -0.000001 0.000000 5.461202 29.065692 2.129099 
-1.974800 17.672701 0.113698 0.646900 -0.845800 4.327300 0.000000 0.000001 0.000000 -0.000002 -0.000003 0.000001 -19.519600 -3.373006 -6.118102 2.571390 -7.064840 0.000001 1.951999 8.765300 25.063902 2.520169 -6.924131 -0.000000 0.982303 4.116794 -20.639696 0.232950 -0.640012 2.102140 1.297904 -7.217703 -20.362005 0.000000 0.000001 0.000000 -0.000001 -0.000003 -0.000002 17.067490 7.585600 -8.882595 -2.632579 -7.232961 0.000001 -3.119193 -10.885599 31.894996 -2.547789 -7.000000 -0.000001 -1.821594 2.171494 -24.936406 -0.230670 -0.633761 2.121610 -0.125999 -2.287798 6.301601 0.000000 0.000001 0.000000 -2.954500 -0.466401 -0.249300 1.976100 -0.616900 -1.472900 0.050700 2.084387 -0.031410 3.696200 -0.260499 -1.319800 0.000000 -0.000001 -0.000000 -10.748399 -3.285901 -22.218803 5.301002 -2.345900 24.966203 0.084110 1.656789 -0.308219 3.412200 -1.385200 12.128803 0.000000 -0.000000 -0.000000 -0.000002 0.000001 -0.000001 -1.898200 0.220602 -6.373499 -0.000000 -5.324617 0.000001 12.951005 -21.215309 2.435507 0.000000 -3.484019 0.000000 11.847007 14.890212 -27.765006 -0.000000 -0.000000 0.000000 0.000002 0.000000 -0.000001 -7.125003 0.000002 0.000001 -0.000000 0.000000 0.000000 -20.387365 57.070411 6.204678 -0.000000 -0.000001 -0.000000 -0.000001 0.000000 0.000000 -2.554500 1.681098 8.718605 -0.000001 -5.335891 0.000000 -15.748290 -25.178102 -3.538194 0.000000 -3.641338 0.000000 -19.503291 19.063106 -0.259012 -0.000001 -0.000001 0.000000 -0.000001 0.000000 0.000000 7.124997 0.000001 0.000001 -0.000001 -0.000001 0.000000 5.546097 29.682998 2.080698 
-1.973900 17.670300 0.120398 0.579800 -0.867600 4.282900 -0.000000 -0.000002 0.000000 -0.000003 -0.000002 0.000003 -19.446203 -3.300406 -6.103001 2.571391 -7.064842 0.000001 1.963797 8.790303 25.141602 2.520169 -6.924128 0.000000 0.991302 4.102997 -20.714902 0.232950 -0.640013 2.102140 1.298004 -7.218105 -20.363205 -0.000000 -0.000002 0.000000 -0.000002 -0.000003 -0.000003 17.160099 7.655898 -8.839299 -2.632580 -7.232961 0.000001 -3.132395 -10.906400 31.964691 -2.547790 -7.000000 -0.000000 -1.815798 1.975695 -24.943402 -0.230671 -0.633762 2.121610 -0.089402 -1.927997 5.306700 -0.000000 -0.000002 0.000000 -2.905100 -0.444801 -0.209002 2.020300 -0.588200 -1.430301 0.050700 2.084389 -0.031410 3.713900 -0.247500 -1.301100 -0.000000 -0.000002 -0.000000 -10.732800 -3.274901 -22.197802 5.317301 -2.342201 24.914109 0.084110 1.656793 -0.308220 3.415200 -1.378800 12.103705 -0.000000 -0.000001 0.000000 0.000000 0.000001 -0.000001 -1.902600 0.148002 -6.225902 0.000000 -5.324616 0.000001 12.871006 -21.097908 2.406707 0.000000 -3.484021 -0.000000 11.779909 15.060017 -27.725708 -0.000001 -0.000001 0.000000 -0.000001 -0.000000 -0.000004 -7.125004 0.000000 -0.000003 -0.000000 -0.000000 0.000000 -20.429357 57.019802 6.192868 -0.000000 -0.000002 0.000000 -0.000001 0.000001 0.000000 -2.529100 1.695698 8.718106 -0.000000 -5.335893 0.000000 -15.783889 -25.226703 -3.553295 0.000000 -3.641338 0.000000 -19.651093 19.201002 -0.287111 0.000001 -0.000001 0.000000 -0.000003 0.000001 -0.000000 7.124992 0.000001 0.000001 -0.000000 -0.000001 0.000000 5.428696 29.653895 2.039998 
-1.965600 17.666401 0.131998 0.735900 -0.707500 4.315000 0.000000 0.000000 0.000000 -0.000003 0.000003 -0.000002 -19.605498 -3.152805 -6.158499 2.571389 -7.064837 0.000001 1.958798 8.779702 25.108503 2.520170 -6.924129 -0.000000 0.995204 3.792897 -20.575301 0.232950 -0.640013 2.102141 1.272104 -7.148503 -20.156202 0.000000 0.000000 0.000000 -0.000004 -0.000003 0.000000 16.943597 7.432696 -8.980197 -2.632579 -7.232960 0.000001 -3.165894 -10.958899 32.141491 -2.547791 -7.000000 -0.000000 -1.811296 2.050196 -24.893307 -0.230670 -0.633761 2.121610 -0.084399 -1.873398 5.155801 0.000000 0.000000 0.000000 -2.972799 -0.505300 -0.181200 1.987601 -0.670400 -1.513700 0.050700 2.084389 -0.031410 3.719900 -0.284900 -1.395200 -0.000000 0.000002 0.000000 -10.768300 -3.242000 -21.998993 5.397501 -2.328901 24.818305 0.084110 1.656786 -0.308219 3.451700 -1.365499 12.027003 -0.000000 0.000002 -0.000000 -0.000000 0.000001 -0.000002 -2.002198 0.351504 -5.775602 -0.000000 -5.324619 0.000001 12.870102 -21.096607 2.406307 -0.000001 -3.484022 -0.000000 11.650211 15.263912 -27.981605 -0.000001 -0.000002 0.000000 -0.000000 0.000001 -0.000000 -7.125001 0.000001 -0.000001 -0.000001 -0.000001 0.000000 -20.731463 57.231511 6.397272 -0.000000 0.000002 -0.000000 -0.000001 0.000000 -0.000000 -2.413899 1.808099 8.486806 -0.000001 -5.335889 0.000001 -15.727491 -25.149706 -3.529294 0.000000 -3.641339 0.000001 -19.688691 19.024203 -0.122109 -0.000001 -0.000001 -0.000000 0.000001 -0.000000 -0.000000 7.124996 0.000001 0.000001 -0.000002 -0.000001 0.000000 5.408398 29.828597 2.009697 
